<svg
    viewBox="0 -64 428 428"
    xmlns="http://www.w3.org/2000/svg"
>
    <path
        d="m317.92 187.93h-207.84c-11.871 0-21.5 9.625-21.5 21.5s9.6289 21.5 21.5 21.5h207.84c11.871 0 21.5-9.625 21.5-21.5s-9.6289-21.5-21.5-21.5zm-169.92 27c0 3.3125-2.6875 6-6 6h-11c-3.3125 0-6-2.6875-6-6v-11c0-3.3125 2.6875-6 6-6h11c3.3125 0 6 2.6875 6 6zm155 0c0 3.3125-2.6875 6-6 6h-11c-3.3125 0-6-2.6875-6-6v-11c0-3.3125 2.6875-6 6-6h11c3.3125 0 6 2.6875 6 6z"
    />
    <path
        d="m53.758 234.93c-3.0547-10.16-4.6562-20.699-4.7578-31.309v-21.574c0.11719-6.7539 0.82031-13.484 2.0938-20.117h-14.98c-19.914 0-36.113 16.586-36.113 36.5 0 19.914 16.199 36.5 36.113 36.5z"
    />
    <path
        d="m391.89 161.93h-14.98c1.2734 6.6328 1.9766 13.363 2.0938 20.117v21.574c-0.10156 10.609-1.7031 21.148-4.7578 31.309h17.645c19.914 0 36.113-16.586 36.113-36.5 0-19.914-16.199-36.5-36.113-36.5z"
    />
    <path
        d="m366 182.16c0-53.148-43.086-96.234-96.234-96.234h-112.53c-53.148 0-96.234 43.086-96.234 96.234v21.527c0 53.152 43.086 96.238 96.234 96.238h112.53c53.148 0 96.234-43.086 96.234-96.238zm-48.078 60.766h-207.84c-18.5 0-33.5-15-33.5-33.5 0-18.504 15-33.5 33.5-33.5h207.84c18.5 0 33.5 14.996 33.5 33.5 0 18.5-15 33.5-33.5 33.5z"
    />
    <path
        d="m353.91 28.109c-0.13672 13.254 9.1172 24.754 22.09 27.461v100.36h12v-100.36c12.98-2.7031 22.246-14.199 22.129-27.461 0-15.523-12.586-28.109-28.109-28.109-15.523 0-28.109 12.586-28.109 28.109z"
    />
</svg>